<svg version="1.2" xmlns="http://www.w3.org/2000/svg" viewBox="0 0 339 339" width="339" height="339">
	<title>consumer-goods-svg</title>
	<style>
		.s0 { fill: #000000 } 
	</style>
	<g id="Layer_1">
	</g>
	<g id="Layer_2">
		<g id="Layer">
			<path id="Layer" fill-rule="evenodd" class="s0" d="m337.9 184v1.5c0 12.8-10.4 23.2-23.2 23.2h-2.2l-38.1 124.3c-1 3.1-3.9 5.3-7.2 5.3h-194.2c-3.3 0-6.2-2.1-7.2-5.3l-38.1-124.3h-2.2c-12.8 0-23.2-10.4-23.2-23.2v-1.5c0-12.8 10.4-23.2 23.2-23.2h7v-31.5c0-25.1 8.7-49.6 24.5-69 14.3-17.6 33.9-30.3 55.5-36.3v-1.5c0-11.5 9.3-20.8 20.8-20.8h73.5c11.5 0 20.8 9.3 20.8 20.8v1.5c21.7 6 41.2 18.7 55.5 36.3 15.8 19.4 24.5 43.9 24.5 69v31.5h7c12.8 0 23.3 10.4 23.3 23.2zm-210.5-161.6v12.9c0 3.2 2.6 5.8 5.8 5.8h73.5c3.2 0 5.8-2.6 5.8-5.8v-12.9c0-3.2-2.6-5.8-5.8-5.8h-73.5c-3.2 0-5.8 2.6-5.8 5.8zm-80 138.4h245.1v-31.5c0-41-27-77.4-65.4-89.8-1.9 9.5-10.3 16.7-20.4 16.7h-73.5c-10.1 0-18.5-7.2-20.4-16.7-38.4 12.4-65.4 48.8-65.4 89.8zm249.3 48h-253.5l35.2 114.6h183.2zm26.1-23.3v-1.5c0-4.5-3.7-8.2-8.2-8.2h-289.2c-4.5 0-8.2 3.7-8.2 8.2v1.5c0 4.5 3.7 8.2 8.2 8.2 0.1 0 289.3 0 289.3 0 4.5 0 8.2-3.7 8.2-8.2z"/>
			<path id="Layer" class="s0" d="m122.9 294c4.1 0 7.5-3.4 7.5-7.5v-40.8c0-4.1-3.4-7.5-7.5-7.5-4.1 0-7.5 3.4-7.5 7.5v40.8c0 4.1 3.4 7.5 7.5 7.5z"/>
			<path id="Layer" class="s0" d="m170 294c4.1 0 7.5-3.4 7.5-7.5v-40.8c0-4.1-3.4-7.5-7.5-7.5-4.1 0-7.5 3.4-7.5 7.5v40.8c0 4.1 3.4 7.5 7.5 7.5z"/>
			<path id="Layer" class="s0" d="m217.1 294c4.1 0 7.5-3.4 7.5-7.5v-40.8c0-4.1-3.4-7.5-7.5-7.5-4.1 0-7.5 3.4-7.5 7.5v40.8c0 4.1 3.3 7.5 7.5 7.5z"/>
		</g>
	</g>
</svg>