<?xml version="1.0" encoding="iso-8859-1"?>
<!-- Uploaded to: SVG Repo, www.svgrepo.com, Generator: SVG Repo Mixer Tools -->
<svg fill="#000000" height="800px" width="800px" version="1.1" id="Layer_1" xmlns="http://www.w3.org/2000/svg" xmlns:xlink="http://www.w3.org/1999/xlink" 
	 viewBox="0 0 512 512" xml:space="preserve">
<g transform="translate(0 -1)">
	<g>
		<g>
			<path d="M503.467,466.068h-8.533V201.532c0-4.713-3.82-8.533-8.533-8.533h-42.667v-25.6h25.6c4.713,0,8.533-3.82,8.533-8.533
				V39.399c0-4.713-3.82-8.533-8.533-8.533H298.667c-4.713,0-8.533,3.82-8.533,8.533v119.467c0,4.713,3.82,8.533,8.533,8.533h25.6
				v25.6h-51.2V82.066c0-4.713-3.821-8.533-8.533-8.533H25.6c-4.713,0-8.533,3.82-8.533,8.533v384.002H8.533
				c-4.713,0-8.533,3.82-8.533,8.533s3.82,8.533,8.533,8.533h494.933c4.713,0,8.533-3.82,8.533-8.533
				S508.18,466.068,503.467,466.068z M162.133,466.066H128v-51.2h34.133V466.066z M307.2,47.932h153.6v102.4H307.2V47.932z
				 M341.333,167.399h85.333v25.6h-85.333V167.399z M332.766,210.066c0.011,0,0.022,0.002,0.034,0.002s0.022-0.002,0.034-0.002
				h102.332c0.011,0,0.022,0.002,0.034,0.002s0.022-0.002,0.034-0.002h42.633v256h-204.8v-256H332.766z M34.133,90.599H256v110.933
				v264.533h-76.8v-59.733c0-4.713-3.82-8.533-8.533-8.533h-51.2c-4.713,0-8.533,3.82-8.533,8.533v59.733h-76.8V90.599z"/>
			<path d="M68.267,184.466h51.2c4.713,0,8.533-3.82,8.533-8.533v-51.2c0-4.713-3.82-8.533-8.533-8.533h-51.2
				c-4.713,0-8.533,3.82-8.533,8.533v51.2C59.733,180.645,63.554,184.466,68.267,184.466z M76.8,133.266h34.133v34.133H76.8V133.266
				z"/>
			<path d="M170.667,184.466h51.2c4.713,0,8.533-3.82,8.533-8.533v-51.2c0-4.713-3.82-8.533-8.533-8.533h-51.2
				c-4.713,0-8.533,3.82-8.533,8.533v51.2C162.133,180.645,165.954,184.466,170.667,184.466z M179.2,133.266h34.133v34.133H179.2
				V133.266z"/>
			<path d="M68.267,278.333h51.2c4.713,0,8.533-3.82,8.533-8.533v-51.2c0-4.713-3.82-8.533-8.533-8.533h-51.2
				c-4.713,0-8.533,3.821-8.533,8.533v51.2C59.733,274.512,63.554,278.333,68.267,278.333z M76.8,227.133h34.133v34.133H76.8
				V227.133z"/>
			<path d="M170.667,278.333h51.2c4.713,0,8.533-3.82,8.533-8.533v-51.2c0-4.713-3.82-8.533-8.533-8.533h-51.2
				c-4.713,0-8.533,3.821-8.533,8.533v51.2C162.133,274.512,165.954,278.333,170.667,278.333z M179.2,227.133h34.133v34.133H179.2
				V227.133z"/>
			<path d="M119.467,372.199c4.713,0,8.533-3.82,8.533-8.533v-51.2c0-4.713-3.82-8.533-8.533-8.533h-51.2
				c-4.713,0-8.533,3.82-8.533,8.533v51.2c0,4.713,3.82,8.533,8.533,8.533H119.467z M76.8,320.999h34.133v34.133H76.8V320.999z"/>
			<path d="M307.2,320.999h51.2c4.713,0,8.533-3.821,8.533-8.533v-51.2c0-4.713-3.82-8.533-8.533-8.533h-51.2
				c-4.713,0-8.533,3.82-8.533,8.533v51.2C298.667,317.179,302.487,320.999,307.2,320.999z M315.733,269.799h34.133v34.133h-34.133
				V269.799z"/>
			<path d="M307.2,414.866h51.2c4.713,0,8.533-3.82,8.533-8.533v-51.2c0-4.713-3.82-8.533-8.533-8.533h-51.2
				c-4.713,0-8.533,3.82-8.533,8.533v51.2C298.667,411.045,302.487,414.866,307.2,414.866z M315.733,363.666h34.133v34.133h-34.133
				V363.666z"/>
			<path d="M392.533,320.999h51.2c4.713,0,8.533-3.821,8.533-8.533v-51.2c0-4.713-3.82-8.533-8.533-8.533h-51.2
				c-4.713,0-8.533,3.82-8.533,8.533v51.2C384,317.179,387.821,320.999,392.533,320.999z M401.067,269.799H435.2v34.133h-34.133
				V269.799z"/>
			<path d="M392.533,414.866h51.2c4.713,0,8.533-3.82,8.533-8.533v-51.2c0-4.713-3.82-8.533-8.533-8.533h-51.2
				c-4.713,0-8.533,3.82-8.533,8.533v51.2C384,411.045,387.821,414.866,392.533,414.866z M401.067,363.666H435.2v34.133h-34.133
				V363.666z"/>
			<path d="M170.667,372.199h51.2c4.713,0,8.533-3.82,8.533-8.533v-51.2c0-4.713-3.82-8.533-8.533-8.533h-51.2
				c-4.713,0-8.533,3.82-8.533,8.533v51.2C162.133,368.379,165.954,372.199,170.667,372.199z M179.2,320.999h34.133v34.133H179.2
				V320.999z"/>
			<path d="M418.133,116.201h-4.577c2.906-5.022,4.577-10.847,4.577-17.067v-25.6c0-4.713-3.82-8.533-8.533-8.533h-51.2
				c-4.713,0-8.533,3.82-8.533,8.533v25.6c0,6.22,1.671,12.045,4.577,17.067h-4.577c-4.713,0-8.533,3.82-8.533,8.533
				c0,4.713,3.82,8.533,8.533,8.533h68.267c4.713,0,8.533-3.82,8.533-8.533C426.667,120.021,422.846,116.201,418.133,116.201z
				 M366.933,99.134V82.067h34.133v17.067c0,9.427-7.64,17.067-17.067,17.067S366.933,108.561,366.933,99.134z"/>
		</g>
	</g>
</g>
</svg>